<svg width="127" height="38" viewBox="0 0 127 38" fill="none" xmlns="http://www.w3.org/2000/svg">
    <path d="M103.884 36.3256L92.412 17.0486C92.154 16.5983 91.5863 16.3073 90.9647 16.3073C90.3667 16.3073 89.8114 16.5925 89.5147 17.0532L79.3658 34.2388C79.3625 34.242 79.3599 34.246 79.3572 34.2505L78.1193 36.3262C78.0747 36.4026 78.051 36.4907 78.051 36.5801C78.051 36.8443 78.2571 37.0629 78.5118 37.0668L80.8827 37.0701H80.9096C81.1596 37.0701 81.3881 36.9383 81.522 36.7171L84.3142 31.9347C84.3418 31.8884 84.4009 31.8629 84.4514 31.8747C86.6332 32.3993 88.8629 32.6649 91.0782 32.6649C93.2423 32.6649 95.4248 32.4097 97.5639 31.9073C97.6177 31.8956 97.6716 31.9184 97.6998 31.966L99.7155 35.3474C99.7169 35.3513 99.7188 35.3553 99.7208 35.3585L100.529 36.7184C100.662 36.9389 100.891 37.0708 101.141 37.0708L103.493 37.0675C103.746 37.0636 103.952 36.8456 103.952 36.5807C103.953 36.4907 103.929 36.4032 103.884 36.3256C103.884 36.3262 103.884 36.3262 103.884 36.3256ZM95.7707 29.0577C94.2098 29.3422 92.6306 29.4864 91.0776 29.4864C89.4701 29.4864 87.837 29.3324 86.2243 29.0277C86.1829 29.0199 86.1481 28.9911 86.1311 28.9513C86.114 28.9115 86.1166 28.8652 86.1389 28.828L90.8577 20.8202C90.8806 20.7817 90.922 20.7576 90.9653 20.7569C91.01 20.7569 91.05 20.7804 91.0736 20.8195L95.8567 28.8574C95.879 28.8946 95.8823 28.9409 95.8645 28.9807C95.8475 29.0218 95.812 29.0505 95.7707 29.0577Z" fill="white"/>
    <path d="M26.6944 36.3256L15.2228 17.0493C14.9648 16.599 14.3971 16.308 13.7755 16.308C13.1775 16.308 12.6222 16.5931 12.3255 17.0538L2.17653 34.2395C2.17325 34.2427 2.17063 34.2466 2.168 34.2512L0.930065 36.3263C0.885431 36.4026 0.861145 36.4907 0.861145 36.5801C0.861145 36.8444 1.06725 37.063 1.32193 37.0669L3.69278 37.0701H3.71969C3.96977 37.0701 4.19819 36.9383 4.33209 36.7171L7.12434 31.9347C7.15191 31.8884 7.21098 31.863 7.26152 31.8747C9.44334 32.3993 11.6731 32.6649 13.8884 32.6649C16.0524 32.6649 18.2349 32.4098 20.3741 31.9073C20.4279 31.8956 20.4817 31.9184 20.5099 31.9661L22.5257 35.3475C22.527 35.3514 22.529 35.3553 22.5309 35.3586L23.3396 36.7184C23.4722 36.939 23.7013 37.0708 23.9513 37.0708L26.3032 37.0675C26.5565 37.0636 26.7626 36.8457 26.7626 36.5807C26.7633 36.4907 26.7397 36.4033 26.6944 36.3256C26.6944 36.3263 26.6944 36.3263 26.6944 36.3256ZM18.5808 29.0577C17.02 29.3422 15.4407 29.4865 13.8877 29.4865C12.2802 29.4865 10.6471 29.3325 9.03441 29.0277C8.99306 29.0199 8.95827 28.9912 8.94121 28.9514C8.92414 28.9116 8.92677 28.8652 8.94908 28.828L13.6678 20.8202C13.6908 20.7817 13.7321 20.7576 13.7755 20.7569C13.8201 20.7569 13.8601 20.7804 13.8838 20.8196L18.6668 28.8574C18.6891 28.8946 18.6924 28.9409 18.6747 28.9807C18.6576 29.0219 18.6228 29.0506 18.5808 29.0577Z" fill="white"/>
    <path d="M43.8378 25.1452C41.7236 24.4209 39.1991 24.2813 37.1663 24.169C36.6484 24.1403 36.1587 24.1129 35.7354 24.0796C32.3314 23.8101 32.3373 22.5168 32.3412 21.8219C32.3511 20.015 34.7889 19.4251 36.8329 19.2483C37.8863 19.1576 38.9792 19.2131 40.0813 19.414C40.1614 19.431 40.2999 19.4597 40.4075 19.4839L41.2208 19.6666C41.2739 19.6783 41.3232 19.6842 41.3724 19.6842C41.6815 19.6842 41.9546 19.4773 42.0373 19.1791L42.4561 17.4571C42.4705 17.3997 42.4777 17.3449 42.4777 17.2874C42.4777 16.9723 42.2624 16.6995 41.9539 16.6238L41.2267 16.4503C41.1394 16.4313 41.0147 16.4065 40.8552 16.3759C39.3908 16.0998 37.931 16.0222 36.5165 16.1449C29.719 16.7328 28.9668 20.2995 28.9589 21.8056C28.949 23.6216 29.7794 26.7354 35.4459 27.1837C35.9074 27.2202 36.4036 27.2477 36.9418 27.2777L36.9674 27.279C42.1771 27.5667 44.8302 28.1579 44.8768 30.5938C44.8926 31.4382 44.6471 32.0692 44.1029 32.5801C42.9109 33.6992 40.5454 33.9439 39.7373 33.9439C39.6861 33.942 39.6382 33.9446 39.5949 33.9478C39.549 33.9504 34.9464 34.2284 31.3698 32.3074L30.5099 31.8369C30.4062 31.7795 30.2894 31.7488 30.1719 31.7488C29.9179 31.7488 29.6855 31.8871 29.5654 32.1096L28.72 33.6907C28.6648 33.7932 28.6373 33.9002 28.6373 34.0092C28.6373 34.2512 28.7699 34.4777 28.9819 34.5997L29.6514 34.9912C33.1519 36.877 37.2949 37.0806 38.9142 37.0806C39.3356 37.0806 39.6304 37.0682 39.7649 37.0604C40.4843 37.0571 44.1916 36.9312 46.502 34.7772C47.6828 33.6757 48.2907 32.2108 48.2585 30.5397C48.2244 28.7589 47.4301 26.3765 43.8378 25.1452Z" fill="white"/>
    <path d="M120.727 25.1452C118.613 24.4209 116.088 24.2813 114.056 24.169C113.538 24.1403 113.048 24.1129 112.625 24.0796C109.22 23.8101 109.227 22.5168 109.23 21.8219C109.24 20.015 111.678 19.4251 113.722 19.2483C114.776 19.1576 115.868 19.2131 116.97 19.414C117.05 19.431 117.189 19.4597 117.296 19.4839L118.109 19.6666C118.163 19.6783 118.212 19.6842 118.261 19.6842C118.57 19.6842 118.843 19.4773 118.926 19.1791L119.345 17.4571C119.359 17.3997 119.366 17.3449 119.366 17.2874C119.366 16.9723 119.151 16.6995 118.843 16.6238L118.115 16.4503C118.028 16.4313 117.903 16.4065 117.744 16.3759C116.279 16.0998 114.82 16.0222 113.405 16.1449C106.608 16.7328 105.855 20.2995 105.847 21.8056C105.838 23.6216 106.668 26.7354 112.334 27.1837C112.797 27.2202 113.292 27.2477 113.83 27.2777L113.856 27.279C119.066 27.5667 121.719 28.1579 121.765 30.5938C121.781 31.4382 121.536 32.0692 120.992 32.5801C119.8 33.6992 117.434 33.9439 116.626 33.9439C116.575 33.942 116.527 33.9446 116.483 33.9478C116.438 33.9504 111.835 34.2284 108.258 32.3074L107.398 31.8369C107.295 31.7795 107.178 31.7488 107.06 31.7488C106.806 31.7488 106.574 31.8871 106.454 32.1096L105.609 33.6907C105.553 33.7932 105.526 33.9002 105.526 34.0092C105.526 34.2512 105.658 34.4777 105.87 34.5997L106.54 34.9912C110.04 36.877 114.184 37.0806 115.803 37.0806C116.224 37.0806 116.519 37.0682 116.653 37.0604C117.373 37.0571 121.08 36.9312 123.391 34.7772C124.571 33.6757 125.179 32.2108 125.147 30.5397C125.114 28.7589 124.319 26.3765 120.727 25.1452Z" fill="white"/>
    <path d="M80.0228 10.5997C81.8403 8.4548 82.7271 5.68873 82.454 3.00814C82.3799 2.51027 82.1679 1.61695 81.5784 1.22739C81.4997 1.18041 81.4268 1.14191 81.3566 1.11059C81.1964 1.03881 81.0277 1.00488 80.8544 1.01141C80.8302 1.01206 80.8078 1.02446 80.7941 1.04469C79.7517 2.53441 77.7412 4.84501 74.0799 7.39118C72.2237 8.68188 70.7849 9.55235 69.5824 10.2669C69.5758 10.2708 69.2575 10.4594 69.2575 10.4594C68.9109 10.6649 68.5965 10.8509 68.3005 11.0316C67.736 11.4016 67.2385 11.7807 66.8007 12.154C65.7872 13.0532 63.8089 15.1556 63.5076 18.0946C63.5076 18.0946 63.1584 20.4626 64.6917 23.6033L66.5381 26.9586H66.5368L67.4177 28.5572L67.4196 28.5605L67.5732 28.8391C67.5955 28.8763 67.5982 28.9227 67.5811 28.9625C67.564 29.0029 67.5286 29.031 67.4872 29.0388C65.9264 29.3233 64.3471 29.4675 62.7941 29.4675C61.1866 29.4675 59.5535 29.3135 57.9408 29.0088C57.8995 29.001 57.8647 28.9723 57.8476 28.9325C57.8305 28.8926 57.8338 28.8463 57.8555 28.8091L58.0281 28.4946L60.6825 23.6646C62.2506 20.4926 61.8962 18.094 61.8962 18.094C61.587 15.076 59.5089 12.9396 58.5237 12.0835C58.1056 11.7331 57.6369 11.3781 57.1072 11.031C56.8112 10.8509 56.4968 10.6643 56.1502 10.4587C56.1502 10.4587 55.8319 10.2695 55.8253 10.2662C54.6228 9.5517 53.184 8.68188 51.3278 7.39053C47.6665 4.84436 45.656 2.53441 44.6136 1.04403C44.5999 1.02381 44.5775 1.01206 44.5533 1.01075C44.38 1.00358 44.2113 1.03816 44.0511 1.10994C43.9809 1.14126 43.908 1.17976 43.8293 1.22674C43.2398 1.6163 43.0278 2.50961 42.9536 3.00749C42.6806 5.68808 43.5667 8.45415 45.3842 10.599C45.4138 10.6336 45.423 10.6806 45.4098 10.7236C44.4548 13.7912 45.6724 17.3892 48.3708 19.4727L49.3816 20.4528C49.4092 20.4796 49.4236 20.5168 49.4216 20.5553C49.2667 23.2091 50.697 25.8232 53.0652 27.2156L54.5447 28.0848C54.5755 28.1024 54.5979 28.1325 54.6064 28.1677C54.6149 28.2016 54.609 28.2388 54.59 28.2688L54.527 28.37H54.5362L51.0823 34.2186C51.079 34.2219 51.0764 34.2258 51.0737 34.2303L49.8358 36.306C49.7912 36.3824 49.7669 36.4705 49.7669 36.5599C49.7669 36.8241 49.973 37.0427 50.2277 37.046L52.5985 37.0493H52.6254C52.8755 37.0493 53.1039 36.9174 53.2378 36.6962L56.0301 31.9139C56.0577 31.8675 56.1167 31.8421 56.1673 31.8538C58.3497 32.3785 60.5788 32.644 62.7941 32.644C64.9582 32.644 67.1407 32.3889 69.2798 31.8864C69.3336 31.8747 69.3875 31.8975 69.4157 31.9452L71.4314 35.3266C71.4327 35.3305 71.4347 35.3344 71.4367 35.3377L72.2453 36.6975C72.3779 36.9181 72.607 37.0499 72.8571 37.0499L75.2089 37.0466C75.4623 37.0427 75.6684 36.8248 75.6684 36.5605C75.6684 36.4711 75.6447 36.383 75.5995 36.3067C75.5995 36.3067 75.5995 36.3067 75.5988 36.306L70.8768 28.3706H70.8794L70.819 28.274L70.8157 28.2688C70.7974 28.2388 70.7915 28.2023 70.8 28.1683C70.8085 28.1338 70.8315 28.1037 70.8617 28.0855L72.3412 27.2163C74.7094 25.8245 76.1397 23.2098 75.9854 20.5559C75.9834 20.5174 75.9979 20.4803 76.0254 20.4535L77.0363 19.4734C79.7347 17.3892 80.9522 13.7912 79.9972 10.7243C79.9841 10.6812 79.9939 10.6349 80.0228 10.5997Z" fill="white"/>
</svg>
